Coordinates
version=1
nRows=11
nColumns=33
inDegrees=yes

Units are S.I. units (second, meters, Newtons, ...)
Angles are in degrees.

endheader
time	ground_thorax_rot_x	ground_thorax_rot_y	ground_thorax_rot_z	ground_thorax_tx	ground_thorax_ty	ground_thorax_tz	clav_prot_r	clav_elev_r	scapula_abduction_r	scapula_elevation_r	scapula_upward_rot_r	scapula_winging_r	shoulder_elv_r	plane_of_elev_r	axial_rot_r	elbow_flexion_r	pro_sup_r	wrist_flex_r	wrist_dev_r	clav_prot_l	clav_elev_l	scapula_abduction_l	scapula_elevation_l	scapula_upward_rot_l	scapula_winging_l	shoulder_elv_l	plane_of_elev_l	axial_rot_l	elbow_flexion_l	pro_sup_l	wrist_flex_l	wrist_dev_l	
4.0000	39.763786	1.192144	9.426197	-156.908385	895.477939	-8.497735	13.933184	38.285010	39.250771	45.000000	-37.714311	2072.362889	-1730.885154	32.421463	67.194180	1457.609528	65.728676	16.779408	3.583482	5.417948	-45.000000	-41.844471	45.000000	0.100092	-613.327773	-3148.812770	13.063714	180.000000	5.173589	226.523764	13.322457	-20.713841	
4.0100	39.811059	0.957128	9.073946	-154.521232	897.155942	-8.447635	13.947290	38.476538	39.515279	45.000000	-36.902006	2072.218481	-1730.815273	32.430452	66.910305	1457.796349	67.335637	16.641573	3.480425	5.183180	-45.000000	-42.188605	45.000000	1.674498	-613.320491	-3148.667749	13.065907	180.000000	5.302974	224.689382	13.552240	-20.542967	
4.0200	39.855604	0.737108	8.739668	-151.996362	898.607874	-8.398671	13.967986	38.678168	39.783584	45.000000	-36.073844	2072.079346	-1730.775391	32.432703	66.640049	1457.965481	68.883730	16.497398	3.390995	4.943560	-45.000000	-42.535460	45.000000	3.241582	-613.309856	-3148.552200	13.072586	180.000000	5.439985	222.816141	13.783526	-20.352448	
4.0300	39.897324	0.525981	8.415403	-149.336288	899.809049	-8.351355	13.964586	38.876724	40.047926	45.000000	-35.233212	2071.952054	-1730.753581	32.434755	66.367663	1458.120296	70.365679	16.350707	3.315778	4.705165	-45.000000	-42.886279	45.000000	4.793590	-613.299204	-3148.473768	13.082051	180.000000	5.580556	220.944447	14.014251	-20.145008	
4.0400	39.936279	0.320064	8.103163	-146.543232	900.740837	-8.306274	13.958431	39.081099	40.317732	44.999999	-34.381937	2071.833481	-1730.756954	32.433401	66.104765	1458.263518	71.772048	16.203636	3.253738	4.465586	-45.000000	-43.233612	45.000000	6.320399	-613.286124	-3148.434072	13.097418	180.000000	5.717349	219.109073	14.237713	-19.927783	
4.0500	39.974882	0.106605	7.792893	-143.619095	901.390814	-8.264273	13.926679	39.281856	40.593076	44.999999	-33.504399	2071.723986	-1730.782932	32.430777	65.853067	1458.397341	73.092151	16.059941	3.206950	4.228236	-45.000000	-43.568051	45.000000	7.797475	-613.279014	-3148.441940	13.119676	180.000000	5.839709	217.342254	14.449866	-19.707769	
4.0600	40.012503	-0.106526	7.501429	-140.565286	901.752794	-8.226444	13.934543	39.497425	40.883857	44.999998	-32.613238	2071.624619	-1730.837198	32.417461	65.632883	1458.523673	74.339182	15.914239	3.169503	3.972745	-45.000000	-43.888833	45.000000	9.275003	-613.264745	-3148.479393	13.140513	180.000000	5.962329	215.650054	14.645585	-19.479258	
4.0700	40.049507	-0.323197	7.226935	-137.383019	901.825953	-8.193954	13.963942	39.714554	41.186465	44.999996	-31.718521	2071.544366	-1730.910648	32.396752	65.422755	1458.645238	75.532061	15.766673	3.140403	3.696662	-45.000000	-44.193404	45.000000	10.758639	-613.247098	-3148.544359	13.154298	180.000000	6.090015	214.034938	14.826828	-19.239685	
4.0800	40.087151	-0.534012	6.980172	-134.073684	901.613658	-8.167703	14.045714	39.947443	41.507123	44.999993	-30.832899	2071.479328	-1731.006832	32.364304	65.222209	1458.762753	76.680992	15.617981	3.117939	3.387563	-45.000000	-44.466971	45.000000	12.229025	-613.232316	-3148.637878	13.160018	180.000000	6.221529	212.500080	14.990797	-18.993001	
4.0900	40.125114	-0.749400	6.750774	-130.639056	901.122105	-8.147922	14.124268	40.169528	41.840964	44.999987	-29.956904	2071.433315	-1731.123980	32.329090	65.003407	1458.874902	77.774649	15.472784	3.105392	3.056359	-45.000000	-44.687591	45.000000	13.610225	-613.243467	-3148.774561	13.164730	180.000000	6.337601	211.071426	15.137924	-18.749116	
4.1000	40.164382	-0.963025	6.542656	-127.081868	900.359035	-8.133957	14.193976	40.384416	42.181075	44.999977	-29.104232	2071.406323	-1731.260586	32.298596	64.744148	1458.978648	78.798981	15.337471	3.103483	2.710046	-45.000000	-44.845453	45.000000	14.850820	-613.290639	-3148.962164	13.171770	180.000000	6.425531	209.770295	15.266671	-18.518884	
